<svg xmlns="http://www.w3.org/2000/svg" viewBox="0 0 24 24" fill="#00A8E1"><path d="M13.425 12.075c-.8.35-1.8.55-2.7.55-.9 0-1.8-.2-2.6-.55-.15-.1-.3 0-.2.2.55 1.15 1.7 1.9 3 1.9 1.25 0 2.45-.75 3-1.9.05-.2-.1-.3-.5-.2zm1.625-1.925c-.25-.25-.5-.35-.8-.35-.55 0-1.05.3-1.25.75-.1.25.05.45.3.35.2-.1.45-.15.7-.15s.5.05.7.15c.25.1.4-.1.3-.35-.1-.2-.65-.35-.65-.35l.7-.05zm-7.3 0c.25-.25.5-.35.8-.35.55 0 1.05.3 1.25.75.1.25-.05.45-.3.35-.2-.1-.45-.15-.7-.15s-.5.05-.7.15c-.25.1-.4-.1-.3-.35.1-.2.65-.35.65-.35l-.7-.05zm5.45-7.75C7.4 2.4 2.4 7.4 2.4 13.6c0 6.2 5 11.2 11.2 11.2S24.8 19.8 24.8 13.6c0-6.2-5-11.2-11.2-11.2h.7zm0 20.4c-5.1 0-9.2-4.1-9.2-9.2s4.1-9.2 9.2-9.2 9.2 4.1 9.2 9.2-4.1 9.2-9.2 9.2z"/></svg>