<svg xmlns="http://www.w3.org/2000/svg" viewBox="0 0 24 24" fill="#00C4CC"><path d="M12 0C5.373 0 0 5.373 0 12s5.373 12 12 12 12-5.373 12-12S18.627 0 12 0zm-.228 17.773c-1.412 0-2.51-.513-3.292-1.54-.783-1.027-1.173-2.42-1.173-4.18 0-1.788.393-3.19 1.18-4.207.786-1.017 1.893-1.525 3.32-1.525.93 0 1.73.22 2.4.66.67.44 1.15 1.06 1.44 1.86h.05l.19-2.28h1.85v11h-1.84l-.2-2.32h-.05c-.295.826-.778 1.467-1.448 1.922-.67.456-1.473.684-2.412.61zm.535-1.79c.883 0 1.566-.315 2.05-.945.483-.63.725-1.482.725-2.555v-.666c0-1.17-.238-2.077-.715-2.72-.477-.644-1.16-.965-2.048-.965-.87 0-1.547.352-2.03 1.055-.484.703-.726 1.667-.726 2.893 0 1.19.235 2.126.705 2.808.47.683 1.152 1.095 2.04 1.095z"/></svg>