<svg xmlns="http://www.w3.org/2000/svg" viewBox="0 0 24 24" fill="#ffffff"><path d="M11.565 9.698c-.2 1.065-.34 2.264-.404 3.496l3.424-3.602c-.956.03-2.028.074-3.02.106zm7.395 5.12l-.018-.018c.266 1.158.377 2.31.317 3.264-.086 1.369-.64 2.183-1.467 2.215-.613.024-1.162-.346-1.586-.852a4.55 4.55 0 0 1-.28-.407l-.003.003-.008-.016c-.66-1.113-1.089-2.749-1.073-4.466l-6.386 6.71c.614.418 1.3.68 1.988.705 1.697.063 3.172-.892 4.386-2.347.197.438.423.857.68 1.244l.008.016.003-.003c.83 1.238 1.93 2.07 3.128 2.023 2.165-.082 3.355-2.292 3.46-5.26.066-1.9-.27-4.05-.96-6.02l-2.19 3.21zm-8.8-7.315A15.7 15.7 0 0 0 9 9.863c-.008.187-.014.374-.017.562l4.836-5.083a15.65 15.65 0 0 0-3.66 2.161zm11.563-.378c-.618-.7-1.376-1.047-2.133-1.02-1.697.063-3.172 1.492-4.147 3.427l-.015-.006-.004.014c-.247.5-.46 1.038-.636 1.607l4.217-4.43c.028.024.057.05.083.077.502.564.847 1.605.793 3.105-.017.473-.083.957-.187 1.434l1.893-2.778c.09-.482.131-.966.136-1.43zm-10.908 9.543c-.026.75.097 1.453.353 1.994l2.527-2.655c-.023-.42-.028-.848-.013-1.278.037-1.02.19-1.985.44-2.845zm-.898-9.434C7.7 5.75 4.534 4.753 2.274 5.586.456 6.253-.341 7.95.13 9.95c.37 1.552 1.533 3.198 3.1 4.595l-.003.008 5.226 4.56.004-.006c.046.04.094.077.14.116l.005-.005.014.014.009-.01c.017.014.034.03.051.044l.014-.015.016.015.006-.007.012.01.006-.007.01.01.007-.007.012.01.014-.015.026.023.004-.004.005.004c.003-.003.005-.007.008-.01l-.016-.015.003-.003-.013-.013.007-.007-.026-.024.007-.007-.03-.027.005-.006-.034-.032.007-.007a278.385 278.385 0 0 1-.236-.224l-.006.006-.009-.01-.009.01-.033-.034c-.016-.015-.033-.03-.05-.046l-.007.008-.035-.036.004-.005-.006-.005c-.01.01-.02.022-.03.033l-.056-.057.004-.005-.006-.005a250.85 250.85 0 0 1-.193-.207l.003-.003-.013-.015.004-.004a77.7 77.7 0 0 1-.154-.176l.003-.004-.022-.026.003-.004-.012-.014.003-.004-.013-.016.004-.004-.013-.017.003-.003C2.697 11.895 1.5 10.1 1.169 8.517c-.285-1.36.175-2.327 1.228-2.69C3.8 5.3 6.5 5.913 8.81 7.233c-.03-.607-.053-.998-.093-1.498l.2.001zm2.087 15.33c.476.367.97.62 1.445.638.28.01.527-.07.735-.232zm-2.293-1.87c.274.35.568.677.878.972l-.885-.93.007-.042z"/></svg>