<svg xmlns="http://www.w3.org/2000/svg" viewBox="0 0 24 24" fill="#ffffff"><path d="M23.234 8.974h-5.66v1.907h2.274v1.908h-2.274v4.233h-2.378v-9.95h8.038v1.902zM9.502 17.022c-2.767 0-5.014-2.246-5.014-5.014 0-2.768 2.247-5.015 5.014-5.015s5.015 2.247 5.015 5.015c0 2.768-2.248 5.014-5.015 5.014zM9.5 9.24c-1.527 0-2.766 1.239-2.766 2.766s1.239 2.768 2.766 2.768c1.527 0 2.768-1.241 2.768-2.768S11.027 9.24 9.5 9.24zM.002 8.974v8.048H2.38v-2.908h.001l2.3 2.908h2.974l-2.86-3.617 2.6-3.285H4.42L2.38 13.008v-4.034z"/></svg>