<svg width="147" height="80" viewBox="0 0 147 80" fill="none" xmlns="http://www.w3.org/2000/svg">
<g id="Logo" clip-path="url(#clip0_509_1733)">
<path id="Vector" d="M78.0792 34.8295V30.5078H64.6979V48.9792H78.2073V44.6575H69.4678V41.6803H77.2789V37.6467H69.4678V34.8295H78.0792Z" fill="white"/>
<path id="Vector_2" d="M49.9719 30.6359L44.8179 30.7319L51.6046 48.9792H56.0864L62.681 30.5078C60.9523 30.5078 59.2556 30.5398 57.559 30.5398L53.9735 42.2245L49.9719 30.6359Z" fill="white"/>
<path id="Vector_3" d="M72.8931 3.29732C88.5474 3.29732 102.185 13.6054 107.435 27.6271H109.324C104.17 11.6206 89.2837 0 71.5806 0C53.8775 0 39.7279 11.0444 34.2217 26.4746L40.08 26.3465C45.4262 12.549 57.7191 3.29732 72.8931 3.29732Z" fill="white"/>
<path id="Vector_4" d="M96.1025 36.8784C96.1025 32.8768 93.3174 30.5078 88.9957 30.5078H81.2166V48.9792H85.8904V43.3449H88.2594L91.2045 48.9792H96.6147L92.6451 42.5446C94.726 41.5522 96.0705 39.7275 96.0705 36.9104M88.8676 39.3433H85.9224V34.8616H88.8676C90.4683 34.8616 91.4286 35.6619 91.4286 37.1665C91.4286 38.479 90.5003 39.3754 88.8676 39.3754" fill="white"/>
<path id="Vector_5" d="M37.9991 48.979H42.737V30.7637C41.1684 30.7957 39.5678 30.8597 37.9991 30.8597V48.979Z" fill="white"/>
<path id="Vector_6" d="M138.199 44.8182V31.821L133.557 31.6289V48.9798H146.106V44.8822L138.199 44.8182Z" fill="white"/>
<path id="Vector_7" d="M10.8844 41.4252C10.8844 43.8261 9.66787 44.9786 7.81112 44.9786C5.95438 44.9786 4.73789 43.8581 4.73789 41.4252V31.9494C3.16927 32.0454 1.56863 32.1094 0 32.1735V41.5852C0 46.8353 3.0092 49.2683 7.77911 49.2683C12.549 49.2683 15.5902 46.8033 15.5902 41.2011V31.5332L10.9164 31.6933V41.4252H10.8844Z" fill="white"/>
<path id="Vector_8" d="M120.016 31.0527L112.877 48.9479H117.743L118.96 45.7786H125.362L126.579 48.9479H131.573L124.498 31.1808L120.016 31.0527ZM120.304 41.9051L122.193 36.9111L124.05 41.9691H120.304V41.9051Z" fill="white"/>
<path id="Vector_9" d="M105.898 37.6462C103.593 37.038 102.985 36.4618 102.985 35.8215C102.985 35.1492 103.529 34.669 104.682 34.669C106.154 34.669 107.787 35.3093 109.356 36.4938L111.629 33.0044C109.804 31.4037 107.627 30.4434 104.778 30.4434C100.776 30.4434 98.2793 32.7803 98.2793 36.2057C98.2793 39.631 101.032 41.0716 104.618 42.032C106.859 42.6402 107.403 42.9924 107.403 43.8247C107.403 44.657 106.731 45.0732 105.514 45.0732C103.561 45.0732 101.769 44.3049 100.104 42.8643L97.543 46.2257C99.5598 48.2745 102.409 49.2669 105.354 49.2669C109.388 49.2669 112.109 47.058 112.109 43.4085C112.109 39.9832 109.74 38.6066 105.898 37.6462Z" fill="white"/>
<path id="Vector_10" d="M34.5419 30.9238L29.932 31.0519V40.5277L23.0493 31.276L18.7275 31.404V48.9791H23.3054V39.2472L30.4442 48.9791H34.5419V30.9238Z" fill="white"/>
<path id="Vector_11" d="M96.4545 69.1161C90.2441 74.4302 82.1768 77.6635 72.669 77.6635C55.5422 77.6635 43.2172 67.6755 38.1272 53.5898H34.5098C39.5678 69.1481 54.1336 79.9684 71.4525 79.9684C82.4009 79.9684 92.1328 75.9348 99.0796 69.084H96.4545V69.1161Z" fill="white"/>
<path id="Vector_12" d="M102.857 62.1366H97.7671V58.199H102.857V53.0449H106.827V58.199H111.917V62.1366H106.827V67.2906H102.857V62.1366Z" fill="white"/>
</g>
<defs>
<clipPath id="clip0_509_1733">
<rect width="146.106" height="80" fill="white"/>
</clipPath>
</defs>
</svg>
