<svg xmlns="http://www.w3.org/2000/svg" viewBox="0 0 24 24" fill="#00A8E1"><path d="M5.803 11.254l2.94-7.98H7.16L5.31 8.697 3.46 3.274H1.867l2.939 7.98zm5.454.12c1.746 0 2.696-1.228 2.696-3.298 0-2.07-.95-3.3-2.696-3.3-1.745 0-2.695 1.23-2.695 3.3 0 2.07.95 3.298 2.695 3.298zm0-1.26c-.762 0-1.162-.718-1.162-2.038 0-1.32.4-2.04 1.162-2.04.762 0 1.162.72 1.162 2.04 0 1.32-.4 2.038-1.162 2.038zm5.7 1.26c.918 0 1.538-.44 1.87-1.05l.088.93h1.26V4.916h-1.487v3.93c0 .96-.476 1.557-1.27 1.557-.718 0-1.04-.464-1.04-1.406V4.916H14.89v4.222c0 1.538.717 2.236 2.067 2.236zm5.25 4.52c-3.9 2.79-9.562 4.27-14.43 4.27-6.83 0-12.98-2.52-17.63-6.7-.366-.33-.04-.78.4-.524 5.02 2.92 11.23 4.68 17.64 4.68 4.327 0 9.08-.897 13.45-2.756.66-.28 1.21.434.57.03z"/></svg>