<svg viewBox="0 0 512 512" xmlns="http://www.w3.org/2000/svg" fill-rule="evenodd" clip-rule="evenodd" stroke-linejoin="round" stroke-miterlimit="2"><path d="M503 114.333v280c0 60.711-49.29 110-110 110H113c-60.711 0-110-49.289-110-110v-280c0-60.71 49.289-110 110-110h280c60.71 0 110 49.29 110 110z" fill="#ff5900"/><path d="M122.883 192.929c2.352 0 4.072 1.262 4.615 3.512l23.62 84.544 23.89-84.544c.543-2.161 2.173-3.512 4.616-3.512h38.552c1.808 0 3.076 1.801 2.532 3.512l-38.007 120.92c-.724 2.34-2.353 3.51-4.796 3.51h-54.3c-2.352 0-4.072-1.08-4.796-3.51L80.621 196.44c-.543-1.621.815-3.512 2.625-3.512h39.637zm104.975 24.13c0-14.225 11.765-25.93 26.063-25.93 14.299 0 26.062 11.705 26.062 25.93s-11.763 25.931-26.062 25.931c-14.298 0-26.064-11.705-26.064-25.931h.001zM277.27 317.09c0 2.16-1.448 3.69-3.71 3.69h-39.276c-2.171 0-3.71-1.44-3.71-3.69v-60.415c0-2.16 1.448-3.692 3.71-3.692h39.276c2.17 0 3.71 1.44 3.71 3.692v60.415zm13.393-.901l37.104-59.335-37.104-59.334c-1.357-2.16-.18-4.592 2.353-4.592h41.99c2.896 0 4.615.901 5.882 3.062l20.362 35.385 20.362-35.385c1.357-2.16 2.986-3.062 5.882-3.062h41.085c2.534 0 3.71 2.341 2.353 4.592l-37.104 59.334 37.104 59.335c1.267 2.161.181 4.592-2.353 4.592h-41.989c-2.896 0-4.615-.9-5.882-3.061l-20.362-35.385-20.361 35.385c-1.267 2.16-2.896 3.06-5.883 3.06h-41.085c-2.534 0-3.71-2.34-2.352-4.591h-.002z" fill="#fff" fill-rule="nonzero"/></svg>