<svg xmlns="http://www.w3.org/2000/svg" viewBox="0 0 24 24" fill="#107C10"><path d="M5.912 2.854A11.95 11.95 0 0 1 12 1.01c2.395 0 4.628.702 6.488 1.904l-.416.351C16.338 4.578 14.076 6.74 12 9.057 9.924 6.74 7.662 4.578 5.928 3.205l-.416-.351zM2.95 4.664l.36.424C4.679 6.666 6.733 8.941 8.3 11.21c-1.551 2.24-2.587 4.614-2.587 6.565 0 1.175.324 2.159.76 2.985A11.956 11.956 0 0 1 .01 12c0-2.867.1-5.043 2.94-7.336zm18.1 0C23.9 6.957 24 9.133 24 12a11.956 11.956 0 0 1-6.464 10.76c.437-.826.761-1.81.761-2.985 0-1.95-1.036-4.325-2.587-6.565 1.567-2.269 3.621-4.544 4.99-6.122l.36-.424zM12 10.527c1.736 2.384 2.891 4.898 2.891 7.248 0 1.405-.43 2.609-1.073 3.501A5.952 5.952 0 0 1 12 21.6a5.952 5.952 0 0 1-1.818-.324c-.643-.892-1.073-2.096-1.073-3.501 0-2.35 1.155-4.864 2.891-7.248z"/></svg>